<svg xmlns="http://www.w3.org/2000/svg" width="317" height="224" viewBox="0 0 317 224" fill="none">
<path opacity="0.1" d="M317 143.876C317.005 149.945 316.366 155.992 315.097 161.884C314.67 163.869 314.174 165.813 313.609 167.715C312.917 170.064 312.116 172.368 311.208 174.617C310.751 175.755 310.267 176.87 309.757 177.962C309.766 184.186 308.651 190.344 306.482 196.048C302.562 206.281 295.572 214.555 286.787 219.362C281.293 222.373 275.29 223.956 269.204 224H60.1816C50.8818 224.023 41.7426 221.216 33.6932 215.865L33.5694 215.784C32.4229 215.013 31.3051 214.197 30.216 213.335C27.7655 211.391 25.4633 209.21 23.3341 206.817C20.4523 203.582 17.913 199.967 15.7687 196.048C10.7326 186.861 8.06475 176.223 8.0741 165.366C2.97396 155.084 0 142.769 0 129.535C0 112.838 4.72604 97.6066 12.4906 86.0763C14.1094 83.6674 15.8826 81.4008 17.7953 79.2955C19.6826 77.2121 21.7111 75.3045 23.8617 73.5907C25.5823 72.218 27.3805 70.9785 29.2444 69.8802C30.0222 69.4257 30.8027 68.9959 31.5966 68.597C32.2937 68.2414 32.9988 67.9106 33.7121 67.5983C34.5679 67.2252 35.4345 66.882 36.3119 66.5686C37.1893 66.2553 38.055 65.9812 38.9091 65.7462C40.1651 65.3937 41.4426 65.1071 42.7416 64.8866C43.8181 64.7041 44.8947 64.5774 45.9712 64.4815C46.8271 64.4073 47.691 64.3671 48.5603 64.3548H49.0313C49.9894 64.3548 50.9422 64.398 51.8869 64.4722C51.9864 64.2434 52.0941 64.0115 52.1937 63.7858C52.5705 62.9602 52.9607 62.1378 53.3537 61.3338C53.3528 61.3266 53.3528 61.3194 53.3537 61.3122C53.4209 61.1699 53.4882 61.0308 53.5582 60.8948C53.8758 60.2362 54.2068 59.5837 54.5459 58.9375C54.702 58.6283 54.8554 58.3376 55.0142 58.047C55.0478 57.9748 55.0847 57.9046 55.1246 57.8367C55.2861 57.5275 55.4502 57.2183 55.6171 56.9091C56.4478 55.3837 57.3118 53.8851 58.2089 52.4133L58.4376 52.0361C58.5776 51.8072 58.7068 51.5846 58.8629 51.3558C59.2343 50.7591 59.6165 50.1592 60.0013 49.5717C60.2705 49.1512 60.5396 48.7338 60.8303 48.3349C61.53 47.3042 62.2477 46.2735 62.9834 45.2429C63.719 44.2122 64.4834 43.1949 65.2764 42.191C65.3841 42.0519 65.4917 41.9158 65.6048 41.7798L66.754 40.3389C66.8105 40.2709 66.8589 40.209 66.9128 40.1472C67.05 39.9771 67.1819 39.807 67.3299 39.6432C67.9462 38.8918 68.5787 38.1559 69.2139 37.4231C72.4463 33.7242 75.89 30.2772 79.5218 27.1049C79.6645 26.9751 79.8098 26.8514 79.9524 26.7277C80.636 26.1371 81.3304 25.5527 82.0248 24.9776C85.8441 21.8298 89.8366 18.9688 93.9771 16.4127C94.2624 16.2241 94.5531 16.0478 94.8465 15.8747C98.5586 13.6184 102.376 11.5994 106.282 9.82663C108.411 8.85882 110.588 7.94976 112.779 7.118C114.238 6.56762 115.702 6.04506 117.185 5.55343C119.503 4.7866 121.837 4.09914 124.188 3.49104C131.112 1.70596 138.157 0.603249 145.245 0.194924C147.398 0.0691807 149.575 0.00424872 151.777 0.000126002C162.4 -0.0160311 172.981 1.52174 183.266 4.57634C183.372 4.76097 183.518 4.91148 183.689 5.01371C183.86 5.11594 184.05 5.16654 184.243 5.16074H185.147C185.54 5.28442 185.93 5.4081 186.323 5.53797C188.518 6.26357 190.681 7.05616 192.812 7.91575L193.35 8.13837C198.611 10.2876 203.73 12.8711 208.667 15.8685C213.117 18.564 217.402 21.6054 221.491 24.9714C222.121 25.4909 222.742 26.0145 223.354 26.5422C224.097 25.9959 224.852 25.4723 225.62 24.9714C228.586 23.031 231.735 21.4883 235.007 20.3736C241.848 18.0478 249.087 17.7226 256.065 19.4274C265.013 21.6073 273.115 27.0184 279.657 34.7145C282.321 37.8633 284.693 41.3224 286.733 45.0357C286.881 45.3016 287.029 45.5706 287.172 45.8427C288.925 49.1292 290.432 52.581 291.677 56.1608C291.723 56.2938 291.768 56.4175 291.809 56.5474C292.958 59.8995 293.884 63.3466 294.581 66.8593C294.613 67.0386 294.651 67.2149 294.683 67.3942C295.335 70.7937 295.777 74.2416 296.007 77.7124C296.007 77.836 296.007 77.9628 296.029 78.0927C296.142 79.8881 296.199 81.7021 296.201 83.5347C296.201 85.1735 296.153 86.7999 296.064 88.4139C296.064 88.5902 296.042 88.7726 296.029 88.955C296.005 89.4219 295.97 89.8826 295.935 90.3526C297.99 92.2575 299.914 94.3426 301.689 96.5893C302.473 97.5725 303.232 98.5929 303.966 99.6504C306.201 102.869 308.165 106.324 309.833 109.969C314.384 119.838 317 131.449 317 143.876Z" fill="#29A867"/>
<path opacity="0.1" d="M286.246 218.297C286.246 220.376 279.926 222.325 268.896 224H60.2723C50.9902 224.022 41.8684 221.258 33.8344 215.989L33.7108 215.91C36.8806 214.6 42.6022 213.38 50.3896 212.277L50.7388 212.229C54.2309 211.744 58.134 211.285 62.3998 210.849C62.5072 210.849 62.6174 210.831 62.7248 210.816C66.1095 210.475 69.7099 210.155 73.5262 209.857C73.647 209.857 73.7652 209.832 73.8861 209.826C75.3582 209.707 76.8607 209.593 78.3936 209.485L78.9846 209.443C90.1459 208.657 102.833 208.03 116.592 207.616H116.608C118.535 207.555 120.482 207.501 122.451 207.454C124.639 207.396 126.854 207.344 129.096 207.299C130.807 207.256 132.54 207.226 134.278 207.196H134.318C142.159 207.062 150.261 206.995 158.545 206.995C179.031 206.995 198.393 207.418 215.55 208.179H215.598C218.236 208.295 220.826 208.423 223.351 208.554L225.5 208.669C228.349 208.824 231.125 208.989 233.827 209.166C265.605 211.215 286.246 214.543 286.246 218.297Z" fill="#29A867"/>
<path d="M180.423 183.027C183.466 183.027 185.933 180.104 185.933 176.498C185.933 172.893 183.466 169.969 180.423 169.969C177.38 169.969 174.912 172.893 174.912 176.498C174.912 180.104 177.38 183.027 180.423 183.027Z" fill="white"/>
<path d="M98.1832 82.4219L103.317 81.8689L106.584 72.4688L100.75 68.5979L98.1832 82.4219Z" fill="#FFB8B8"/>
<path d="M145.297 108.228C145.468 107.724 145.535 107.179 145.493 106.637C145.451 106.096 145.301 105.575 145.055 105.116C144.81 104.657 144.476 104.273 144.08 103.998C143.685 103.722 143.241 103.561 142.783 103.528L134.812 102.965L133.638 107.589L141.844 110.259C142.529 110.482 143.26 110.399 143.897 110.024C144.534 109.649 145.033 109.01 145.297 108.228V108.228Z" fill="#FFB8B8"/>
<path d="M136.738 110.337L136.651 101.66L118.946 98.3129L105.306 79.7783C104.596 78.814 103.616 78.1871 102.546 78.0138C101.476 77.8404 100.389 78.1324 99.4873 78.8356C98.9411 79.2613 98.4805 79.8241 98.138 80.4839C97.7955 81.1438 97.5796 81.8848 97.5054 82.6544C97.4312 83.4241 97.5006 84.2036 97.7087 84.938C97.9167 85.6724 98.2584 86.3437 98.7095 86.9044L109.962 103.312L136.738 110.337Z" fill="#29A867"/>
<path d="M94.2163 207.944H98.8833L110.459 145.933L122.452 165.09L129.452 206.562H133.886L132.952 162.049L117.318 114.494H101.917C97.7081 123.518 94.4066 132.821 98.1833 142.418L94.2163 207.944Z" fill="#2F2E41"/>
<path d="M126.591 211.711C126.54 211.907 126.524 212.113 126.545 212.317C126.566 212.52 126.623 212.716 126.713 212.891C126.803 213.066 126.923 213.217 127.066 213.332C127.209 213.448 127.371 213.527 127.541 213.562L138.961 215.964C139.412 216.061 139.878 215.96 140.271 215.679C140.664 215.398 140.956 214.957 141.093 214.438V214.438C141.226 213.942 141.207 213.407 141.04 212.925C140.873 212.444 140.568 212.048 140.179 211.807C137.668 210.279 135.507 208.053 133.881 205.319C132.626 206.704 131.223 206.574 129.734 205.553L128.154 205.787L126.591 211.711Z" fill="#2F2E41"/>
<path d="M92.0554 211.711C92.0038 211.907 91.988 212.113 92.009 212.317C92.03 212.52 92.0873 212.716 92.1772 212.891C92.267 213.066 92.3873 213.217 92.5301 213.332C92.6729 213.448 92.8348 213.527 93.0052 213.562L104.425 215.964C104.877 216.061 105.342 215.96 105.735 215.679C106.128 215.398 106.42 214.957 106.557 214.438V214.438C106.69 213.942 106.671 213.407 106.504 212.925C106.337 212.444 106.033 212.048 105.644 211.807C103.133 210.279 100.972 208.053 99.3456 205.319C98.0905 206.704 96.6876 206.574 95.1979 205.553L93.6178 205.787L92.0554 211.711Z" fill="#2F2E41"/>
<path d="M106.701 75.9247C110.309 75.9247 113.234 72.4588 113.234 68.1833C113.234 63.9078 110.309 60.4418 106.701 60.4418C103.092 60.4418 100.167 63.9078 100.167 68.1833C100.167 72.4588 103.092 75.9247 106.701 75.9247Z" fill="#FFB8B8"/>
<path d="M100.867 116.567L117.901 116.014L112.899 97.3594C116.008 91.4542 112.879 85.555 108.451 79.6571L104.95 76.8923L99.35 76.3394C96.9253 79.4135 95.5985 83.4801 95.6477 87.6873C95.7586 96.6965 97.1049 106.504 100.867 116.567Z" fill="#29A867"/>
<path d="M143.24 124.326C143.564 123.942 143.807 123.472 143.948 122.955C144.089 122.438 144.124 121.888 144.051 121.352C143.977 120.815 143.797 120.307 143.526 119.869C143.254 119.431 142.899 119.076 142.488 118.833L135.347 114.6L132.733 118.304L139.39 124.584C139.947 125.108 140.647 125.372 141.357 125.325C142.066 125.277 142.737 124.922 143.24 124.326V124.326Z" fill="#FFB8B8"/>
<path d="M137.595 123.243L138.369 114.77L120.442 107.614L108.22 86.5561C107.584 85.4604 106.635 84.6339 105.549 84.2297C104.463 83.8254 103.313 83.8708 102.312 84.3575V84.3575C101.707 84.6521 101.176 85.099 100.757 85.6665C100.338 86.2341 100.041 86.9084 99.8881 87.6419C99.7349 88.3754 99.7288 89.1502 99.8703 89.9114C100.012 90.6727 100.297 91.4018 100.707 92.0473L110.678 110.508L137.595 123.243Z" fill="#29A867"/>
<path d="M95.9664 65.142C95.9664 68.1542 97.6175 72.8191 99.7 74.8188C101.101 76.1643 102.953 76.1076 103.667 74.2659C104.399 72.3765 106.924 67.9356 111.368 65.142C117.291 61.4179 109.267 55.0466 103.667 56.0181C99.459 56.7481 95.9664 60.103 95.9664 65.142Z" fill="#2F2E41"/>
<path d="M99.9335 60.9947C102.511 60.9947 104.6 58.519 104.6 55.4651C104.6 52.4111 102.511 49.9354 99.9335 49.9354C97.356 49.9354 95.2665 52.4111 95.2665 55.4651C95.2665 58.519 97.356 60.9947 99.9335 60.9947Z" fill="#2F2E41"/>
<path d="M105.3 53.5296C105.3 52.1356 104.855 50.7932 104.054 49.7716C103.254 48.75 102.157 48.1247 100.983 48.0209C101.099 48.0107 101.215 48 101.333 48C102.571 48 103.758 48.5826 104.633 49.6196C105.509 50.6566 106 52.0631 106 53.5296C106 54.9962 105.509 56.4027 104.633 57.4397C103.758 58.4767 102.571 59.0593 101.333 59.0593C101.215 59.0593 101.099 59.0485 100.983 59.0383C102.157 58.9346 103.254 58.3092 104.054 57.2876C104.855 56.266 105.3 54.9237 105.3 53.5296Z" fill="#2F2E41"/>
<path d="M106.817 70.948C107.397 70.948 107.867 70.2053 107.867 69.2891C107.867 68.373 107.397 67.6302 106.817 67.6302C106.237 67.6302 105.767 68.373 105.767 69.2891C105.767 70.2053 106.237 70.948 106.817 70.948Z" fill="#FFB8B8"/>
<path d="M239.048 197.804H166.397L151.013 111.634H137.883V107.768H153.658L169.042 193.937H239.048V197.804Z" fill="#3F3D56"/>
<path d="M177.044 213.546C180.906 213.546 184.037 209.837 184.037 205.261C184.037 200.685 180.906 196.975 177.044 196.975C173.182 196.975 170.051 200.685 170.051 205.261C170.051 209.837 173.182 213.546 177.044 213.546Z" fill="#3F3D56"/>
<path d="M229.258 213.546C233.12 213.546 236.251 209.837 236.251 205.261C236.251 200.685 233.12 196.975 229.258 196.975C225.396 196.975 222.265 200.685 222.265 205.261C222.265 209.837 225.396 213.546 229.258 213.546Z" fill="#3F3D56"/>
<path d="M237.723 195.983H167.038L154.567 122.958H249.427C249.911 122.958 250.39 123.082 250.829 123.322C251.269 123.562 251.66 123.912 251.974 124.348C252.289 124.784 252.52 125.295 252.652 125.847C252.784 126.399 252.813 126.978 252.738 127.544L241.034 192.629C240.913 193.565 240.512 194.419 239.905 195.035C239.297 195.65 238.523 195.987 237.723 195.983V195.983ZM167.806 194.878H237.723C238.3 194.881 238.859 194.638 239.298 194.194C239.736 193.749 240.025 193.133 240.112 192.457L251.817 127.373C251.871 126.964 251.85 126.546 251.755 126.148C251.659 125.749 251.493 125.38 251.266 125.066C251.039 124.751 250.757 124.498 250.439 124.325C250.122 124.152 249.777 124.062 249.427 124.062H155.699L167.806 194.878Z" fill="#3F3D56"/>
<path d="M180.78 195.749L172.612 123.6L173.532 123.42L181.7 195.569L180.78 195.749Z" fill="#3F3D56"/>
<path d="M226.194 195.195L225.274 195.018L233.203 123.422L234.123 123.599L226.194 195.195Z" fill="#3F3D56"/>
<path d="M204.557 123.51H203.624V195.659H204.557V123.51Z" fill="#3F3D56"/>
<path d="M159.33 142.843L159.327 143.948L249.582 144.207L249.584 143.102L159.33 142.843Z" fill="#3F3D56"/>
<path d="M243.215 176.969L163.924 177.612L163.931 178.716L243.221 178.074L243.215 176.969Z" fill="#3F3D56"/>
<path d="M139.282 112.463C142.114 112.463 144.41 110.979 144.41 109.149C144.41 107.318 142.114 105.834 139.282 105.834C136.45 105.834 134.154 107.318 134.154 109.149C134.154 110.979 136.45 112.463 139.282 112.463Z" fill="#3F3D56"/>
</svg>